<svg width="25" height="24" viewBox="0 0 25 24" fill="none" xmlns="http://www.w3.org/2000/svg">
<g clip-path="url(#clip0_266_3405)">
<path d="M24.5 12C24.5 5.37188 19.1281 0 12.5 0C5.87188 0 0.5 5.37188 0.5 12C0.5 17.9906 4.8875 22.9547 10.625 23.8547V15.4688H7.57812V12H10.625V9.35625C10.625 6.34922 12.4156 4.6875 15.1578 4.6875C16.4703 4.6875 17.8438 4.92188 17.8438 4.92188V7.875H16.3297C14.8391 7.875 14.375 8.80078 14.375 9.75V12H17.7031L17.1711 15.4688H14.375V23.8547C20.1125 22.9547 24.5 17.9906 24.5 12Z" fill="#1877F2"/>
<path d="M17.1711 15.4688L17.7031 12H14.375V9.75C14.375 8.80078 14.8391 7.875 16.3297 7.875H17.8438V4.92188C17.8438 4.92188 16.4703 4.6875 15.1578 4.6875C12.4156 4.6875 10.625 6.34922 10.625 9.35625V12H7.57812V15.4688H10.625V23.8547C11.2367 23.9508 11.8625 24 12.5 24C13.1375 24 13.7633 23.9508 14.375 23.8547V15.4688H17.1711Z" fill="white"/>
</g>
<defs>
<clipPath id="clip0_266_3405">
<rect width="24" height="24" fill="white" transform="translate(0.5)"/>
</clipPath>
</defs>
</svg>
