<svg width="21" height="22" viewBox="0 0 21 22" fill="none" xmlns="http://www.w3.org/2000/svg">
<path d="M10.5001 4.62131C12.453 4.62131 13.7704 5.46486 14.5215 6.16975L17.4566 3.30398C15.6539 1.62842 13.3081 0.599976 10.5001 0.599976C6.43258 0.599976 2.91969 2.9342 1.20947 6.33153L4.57214 8.94309C5.41569 6.43553 7.74992 4.62131 10.5001 4.62131Z" fill="#EA4335"/>
<path d="M20.484 11.2311C20.484 10.376 20.4147 9.75197 20.2644 9.10486H10.5V12.9644H16.2316C16.116 13.9235 15.492 15.368 14.1053 16.3386L17.3871 18.8809C19.3516 17.0666 20.484 14.3973 20.484 11.2311Z" fill="#4285F4"/>
<path d="M4.58365 13.0569C4.3641 12.4098 4.23699 11.7164 4.23699 11C4.23699 10.2835 4.3641 9.59021 4.5721 8.9431L1.20943 6.33154C0.504542 7.74132 0.100098 9.32443 0.100098 11C0.100098 12.6755 0.504542 14.2587 1.20943 15.6684L4.58365 13.0569Z" fill="#FBBC05"/>
<path d="M10.5003 21.4C13.3083 21.4 15.6656 20.4756 17.3874 18.8809L14.1056 16.3387C13.2274 16.9511 12.0487 17.3787 10.5003 17.3787C7.75008 17.3787 5.41586 15.5644 4.58386 13.0569L1.22119 15.6684C2.93141 19.0658 6.43275 21.4 10.5003 21.4Z" fill="#34A853"/>
</svg>
